<?xml version="1.0" encoding="utf-8"?>
<!-- Generator: Adobe Illustrator 24.3.0, SVG Export Plug-In . SVG Version: 6.00 Build 0)  -->
<svg version="1.1" id="Layer_1" xmlns="http://www.w3.org/2000/svg" xmlns:xlink="http://www.w3.org/1999/xlink" x="0px" y="0px"
	 viewBox="0 0 61 61" style="enable-background:new 0 0 61 61;" xml:space="preserve">
<style type="text/css">
	.st0{fill:#0F1C2E;}
	.st1{fill:#FFFFFF;}
</style>
<g>
	
		<image style="overflow:visible;opacity:0.1;" width="92" height="92" xlink:href="41D8E9D1D285C3BB.png"  transform="matrix(1 0 0 1 -8.2427 -8.1301)">
	</image>
	<g>
		<g>
			<circle class="st0" cx="30.5" cy="30.5" r="30.5"/>
			<path class="st1" d="M27.8,44.4l-3.2-0.9c-0.3-0.1-0.5-0.5-0.4-0.8l7.3-25c0.1-0.3,0.5-0.5,0.8-0.4l3.2,0.9
				c0.3,0.1,0.5,0.5,0.4,0.8l-7.3,25C28.5,44.3,28.1,44.5,27.8,44.4z M21.7,38.5L24,36c0.2-0.3,0.2-0.7,0-0.9l-4.8-4.2l4.8-4.2
				c0.3-0.2,0.3-0.7,0-0.9l-2.3-2.5c-0.2-0.3-0.6-0.3-0.9,0l-7.7,7.2c-0.3,0.3-0.3,0.7,0,0.9l7.7,7.2C21.1,38.7,21.5,38.7,21.7,38.5
				L21.7,38.5z M39.1,38.5l7.7-7.2c0.3-0.3,0.3-0.7,0-0.9l-7.7-7.2c-0.3-0.2-0.7-0.2-0.9,0l-2.3,2.5c-0.2,0.3-0.2,0.7,0,0.9l4.8,4.2
				L36,35.1c-0.3,0.2-0.3,0.7,0,0.9l2.3,2.5C38.5,38.7,38.9,38.7,39.1,38.5L39.1,38.5z"/>
		</g>
	</g>
</g>
</svg>
