<?xml version="1.0" encoding="utf-8"?>
<!-- Generator: Adobe Illustrator 24.3.0, SVG Export Plug-In . SVG Version: 6.00 Build 0)  -->
<svg version="1.1" id="Layer_1" xmlns="http://www.w3.org/2000/svg" xmlns:xlink="http://www.w3.org/1999/xlink" x="0px" y="0px"
	 viewBox="0 0 61 60" style="enable-background:new 0 0 61 60;" xml:space="preserve">
<style type="text/css">
	.st0{fill:#0F1C2E;}
	.st1{fill:#FFFFFF;}
</style>
<g>
	
		<image style="overflow:visible;opacity:0.1;" width="92" height="92" xlink:href="84A69D1C9E339231.png"  transform="matrix(1 0 0 1 -8 -9)">
	</image>
	<g>
		<g>
			<circle class="st0" cx="30.8" cy="30" r="30.4"/>
			<path class="st1" d="M26.9,41c0,0.3,0.1,0.7,0.3,1l0.9,1.4c0.3,0.5,0.9,0.8,1.5,0.8H33c0.6,0,1.1-0.3,1.5-0.8l0.9-1.4
				c0.2-0.3,0.3-0.6,0.3-1l0-2.1h-8.8L26.9,41z M21.6,25.7c0,2.4,0.9,4.6,2.4,6.3c0.9,1,2.3,3.2,2.9,5c0,0,0,0,0,0h8.8c0,0,0,0,0,0
				c0.5-1.8,2-4,2.9-5c1.5-1.7,2.4-3.9,2.4-6.3c0-5.3-4.3-9.7-9.7-9.6C25.7,16.1,21.6,20.6,21.6,25.7z M31.3,21.3
				c-2.4,0-4.4,2-4.4,4.4c0,0.5-0.4,0.9-0.9,0.9s-0.9-0.4-0.9-0.9c0-3.4,2.8-6.1,6.1-6.1c0.5,0,0.9,0.4,0.9,0.9S31.8,21.3,31.3,21.3
				z"/>
		</g>
	</g>
</g>
</svg>
