<?xml version="1.0" encoding="utf-8"?>
<!-- Generator: Adobe Illustrator 24.3.0, SVG Export Plug-In . SVG Version: 6.00 Build 0)  -->
<svg version="1.1" id="Layer_1" xmlns="http://www.w3.org/2000/svg" xmlns:xlink="http://www.w3.org/1999/xlink" x="0px" y="0px"
	 viewBox="0 0 61 61" style="enable-background:new 0 0 61 61;" xml:space="preserve">
<style type="text/css">
	.st0{fill:#0F1C2E;}
	.st1{fill:#FFFFFF;}
</style>
<g>
	
		<image style="overflow:visible;opacity:0.1;" width="91" height="92" xlink:href="AF918E7C18BAB286.png"  transform="matrix(1 0 0 1 -8 -9)">
	</image>
	<g>
		<g>
			<circle class="st0" cx="30.5" cy="30.3" r="30.4"/>
			<path class="st1" d="M44,40.2l-5.4-5.4c-0.2-0.2-0.6-0.4-0.9-0.4h-0.9c1.5-1.9,2.4-4.3,2.4-6.9c0-6.2-5-11.2-11.2-11.2
				s-11.2,5-11.2,11.2s5,11.2,11.2,11.2c2.6,0,5-0.9,6.9-2.4v0.9c0,0.3,0.1,0.7,0.4,0.9l5.4,5.4c0.5,0.5,1.3,0.5,1.8,0l1.5-1.5
				C44.5,41.6,44.5,40.7,44,40.2z M28,34.5c-3.8,0-6.9-3.1-6.9-6.9c0-3.8,3.1-6.9,6.9-6.9c3.8,0,6.9,3.1,6.9,6.9
				C34.9,31.4,31.8,34.5,28,34.5z"/>
		</g>
	</g>
</g>
</svg>
