<?xml version="1.0" encoding="utf-8"?>
<!-- Generator: Adobe Illustrator 24.3.0, SVG Export Plug-In . SVG Version: 6.00 Build 0)  -->
<svg version="1.1" id="Layer_1" xmlns="http://www.w3.org/2000/svg" xmlns:xlink="http://www.w3.org/1999/xlink" x="0px" y="0px"
	 viewBox="0 0 60 60" style="enable-background:new 0 0 60 60;" xml:space="preserve">
<style type="text/css">
	.st0{fill:#0F1C2E;}
	.st1{fill:#FFFFFF;}
</style>
<g>
	
		<image style="overflow:visible;opacity:0.1;" width="91" height="91" xlink:href="7C23AD17AC145855.png"  transform="matrix(1 0 0 1 -8.2587 -8.2895)">
	</image>
	<g>
		<g>
			<circle class="st0" cx="30" cy="30" r="30"/>
			<path class="st1" d="M22.7,30.2l7-7l-2.3-2.3l-3.2,3.2c-0.2,0.2-0.4,0.2-0.6,0c0,0,0,0,0,0l-0.6-0.6c-0.2-0.2-0.2-0.4,0-0.6
				l3.2-3.2l-1.8-1.8c-0.6-0.6-1.7-0.6-2.3,0l-4.7,4.7c-0.6,0.6-0.6,1.7,0,2.3L22.7,30.2L22.7,30.2z M43,24.1c1-1,1-2.6,0-3.5
				l-2.4-2.4c-1-1-2.6-1-3.6,0l-2.4,2.4l5.9,5.9L43,24.1L43,24.1z M33.5,21.8L18,37.3l-1,5.6c-0.1,0.8,0.5,1.4,1.3,1.3l5.6-1
				l15.5-15.5L33.5,21.8z M43.3,36.7l-1.8-1.8l-3.2,3.2c-0.2,0.2-0.4,0.2-0.6,0l-0.6-0.6c-0.2-0.2-0.2-0.4,0-0.6l3.2-3.2L38,31.4
				l-7,7l5.2,5.2c0.6,0.6,1.7,0.6,2.3,0l4.7-4.7C43.9,38.4,43.9,37.3,43.3,36.7L43.3,36.7z"/>
		</g>
	</g>
</g>
</svg>
